PathFileType	4	(X/Y/Z)	C:/Users/beibeiliu/ov580/test_trc/User3\sequence.6_training_dense_right.trc
DataRate	CameraRate	NumFrames	NumMarkers	Units	OrigDataRate	OrigDataStartFrame	OrigNumFrames
120	120	16	19	mm	120	81	107
Frame#	Time	ThumbCMC			ThumbMCP			ThumbIP			ThumbTip			IndexMCP			IndexPIP			IndexTip			MiddleMCP			MiddlePIP			MiddleTip			RingMCP			RingPIP			RingTip			PinkyMCP			PinkyPIP			PinkyTip			BackHand1			BackHand2			BackHand3	
		X0	Y0	Z0	X1	Y1	Z1	X2	Y2	Z2	X3	Y3	Z3	X4	Y4	Z4	X5	Y5	Z5	X6	Y6	Z6	X7	Y7	Z7	X8	Y8	Z8	X9	Y9	Z9	X10	Y10	Z10	X11	Y11	Z11	X12	Y12	Z12	X13	Y13	Z13	X14	Y14	Z14	X15	Y15	Z15	X16	Y16	Z16	X17	Y17	Z17	X18	Y18	Z18	
80	0.666667	103.535	1.23221	-26.7796	84.6729	-3.86489	-54.5032	71.8638	-8.37203	-77.9552	60.356	-13.1253	-97.8706	129.773	33.7555	-94.1552	119.631	41.3329	-117.958	114.011	45.3618	-142.074	159.19	29.6915	-92.9829	164.396	38.2747	-119.489	162.466	43.7365	-151.382	177.13	13.096	-83.4041	185.53	18.7455	-107.752	193.85	20.2535	-135.459	190.669	-9.4145	-73.2368	204.469	-14.5401	-93.1861	215.055	-21.5648	-115.405	167.584	9.4054	-35.9279	165.871	3.15657	-9.37525	137.109	17.6346	-25.7899	
81	0.675	83.8815	-3.50683	-28.0006	67.213	-13.3371	-52.8624	53.4869	-19.7472	-77.212	50.6525	-26.7537	-98.5527	95.8188	33.6541	-94.3538	86.1519	38.4526	-118.941	78.562	42.21	-144.09	131.042	39.8579	-96.6298	131.36	47.6071	-124.739	127.437	52.9683	-154.252	152.432	27.8838	-87.2486	156.721	36.9478	-112.085	168.017	39.0649	-137.188	171.223	8.28925	-76.6825	185.033	7.50171	-94.0822	196.105	7.90153	-113.788	144.479	19.1679	-36.8537	147.759	14.3189	-9.70015	116.371	21.8806	-27.9351	
82	0.683333	65.1445	-11.9739	-29.3768	53.6551	-26.5151	-52.7356	44.5534	-37.1597	-78.55	39.8851	-47.7006	-98.4263	74.6388	22.1007	-99.9336	62.957	22.6629	-121.447	57.0725	21.045	-144.399	102.843	33.3739	-98.3542	99.1333	40.1042	-123.555	100.61	43.6693	-161.161	127.077	29.1816	-91.8368	130.764	36.4964	-116.89	138.931	39.1434	-139.036	148.569	13.7438	-76.4369	163.995	15.7043	-95.3475	173.885	18.311	-113.825	123.889	24.1648	-44.8577	123.727	22.1688	-15.8463	91.9748	19.7449	-33.4897	
83	0.691667	60.1595	-24.9395	-27.2218	47.7118	-47.4844	-50.071	40.5811	-62.9988	-70.4621	37.2843	-77.5267	-89.6886	63.8152	-5.0217	-101.569	50.1494	-12.5766	-127.234	43.1735	-20.6646	-150.046	91.8194	10.3031	-103.897	89.5047	10.303	-131.577	88.9475	7.12379	-164.277	111.872	8.75757	-93.8907	119.415	13.4093	-117.866	124.032	13.7793	-147.752	138.049	2.02848	-82.403	150.341	2.40824	-100.694	161.714	4.24104	-115.943	110.769	15.3848	-47.9786	112.011	16.907	-16.555	78.0817	10.0481	-36.8997	
84	0.7	56.3053	-38.5449	-23.4501	50.7994	-64.262	-41.4775	40.9705	-88.0929	-58.7581	40.5278	-104.194	-70.271	56.6879	-39.7733	-99.8629	52.8549	-53.1194	-123.077	47.0929	-66.536	-143.288	87.2155	-24.1684	-104.471	88.2665	-30.4839	-135.807	92.7687	-40.7034	-164.567	108.552	-19.3259	-98.7752	120.783	-20.4998	-120.053	123.182	-29.8606	-145.567	133.349	-21.1487	-75.6746	149.376	-23.8766	-93.1345	158.572	-28.6652	-112.526	100.155	-3.29667	-54.1776	103.222	7.61414	-25.3868	73.8718	-6.76092	-41.4936	
85	0.708333	53.9242	-43.9973	-17.8336	45.2377	-72.2284	-26.0337	37.4039	-96.9915	-38.8871	28.3393	-116.735	-44.1006	57.0822	-63.2234	-88.1991	48.3151	-80.9347	-107.843	42.4015	-99.3372	-125.959	84.1356	-55.7173	-101.361	87.7482	-67.7609	-121.793	87.9656	-88.6499	-150.311	112.615	-50.5016	-91.5449	115.381	-60.4084	-111.278	126.232	-76.2853	-133.59	133.083	-50.3861	-72.9404	145.578	-59.0176	-85.2954	155.902	-73.1526	-103.96	101.281	-19.9348	-50.1594	104.751	-3.57796	-24.1986	74.1581	-16.0179	-37.3058	
86	0.716667	50.8439	-37.1469	-10.5838	35.6239	-62.1514	-10.4973	17.156	-86.3361	-19.3719	6.46274	-102.585	-19.5369	47.2196	-73.0309	-77.6214	36.7495	-89.734	-88.7273	26.2854	-111.615	-106.481	78.5842	-74.2336	-87.0015	74.4793	-94.8106	-106.695	67.1726	-120.79	-125.968	103.642	-78.2092	-80.1052	102.083	-95.3609	-96.9891	102.523	-117.342	-112.977	122.827	-77.6598	-59.6879	129.441	-94.4906	-72.5774	136.035	-110.356	-83.9026	104.585	-36.8599	-47.2503	112.773	-13.4383	-27.6883	76.9787	-21.8795	-39.0282	
87	0.725	56.906	-19.5718	-6.40956	30.7202	-41.0123	-8.14422	3.91753	-53.6004	-9.96454	-14.2944	-65.8624	-11.2028	38.5507	-64.5615	-69.1014	20.6668	-77.1407	-78.1871	1.67106	-90.018	-89.5036	61.8842	-79.6601	-77.08	48.5885	-97.5372	-90.0501	37.1195	-122.361	-103.869	83.553	-89.4794	-66.3707	78.6212	-110.662	-78.8209	69.2472	-131.339	-89.6612	104.515	-96.0278	-45.3191	100.431	-115.15	-53.0744	100.6	-137.892	-61.627	106.737	-46.5573	-41.5709	118.326	-29.0339	-24.5765	85.5008	-21.0134	-33.9465	
88	0.733333	69.7264	-0.655622	-9.89905	36.3887	-5.20144	-9.79902	9.95031	-8.88282	-13.6945	-13.3152	-13.4255	-15.6456	35.1509	-43.7423	-67.1638	10.3471	-51.134	-80.0603	-13.0707	-55.9873	-89.2965	49.9874	-70.9315	-70.8011	30.6376	-82.2697	-82.7189	3.84759	-98.2854	-95.2461	59.3687	-83.7581	-57.9657	45.4978	-103.133	-68.1501	29.4425	-124.647	-75.2626	75.5242	-94.0407	-34.2191	64.464	-115.88	-37.2873	51.7966	-135.833	-42.4596	96.1628	-53.3694	-37.745	117.865	-39.5888	-22.9095	92.9119	-19.7367	-36.9739	
89	0.741667	82.2898	9.95256	-18.7038	54.3214	19.522	-18.7169	26.9752	30.1131	-27.0011	8.84077	34.5873	-28.2193	39.3632	-19.2941	-70.9115	17.6466	-14.683	-83.9133	-8.00132	-19.4974	-96.8774	42.6572	-51.0267	-68.1428	17.3295	-55.9784	-84.6019	-13.5808	-61.9017	-95.0516	45.4271	-67.3383	-54.7715	27.6259	-81.2941	-61.8181	3.10055	-90.3291	-70.9147	52.8212	-81.9701	-25.9789	36.3167	-92.511	-29.434	18.6803	-107.365	-30.3913	92.3274	-52.9452	-31.0641	113.875	-48.4389	-16.1076	98.7688	-18.6712	-39.7527	
90	0.75	100.726	20.3743	-21.7386	76.2918	40.0418	-30.6368	56.4539	58.2081	-43.3686	44.2923	73.5341	-47.7878	51.8708	4.54866	-79.6324	31.9168	9.98631	-92.6718	12.707	19.3012	-107.044	42.2459	-27.9892	-70.223	17.6759	-24.7573	-88.8887	-10.0703	-22.1945	-101.336	37.6883	-44.2221	-52.1983	11.6856	-48.954	-66.1443	-14.4498	-51.0676	-73.4975	35.5591	-52.3733	-24.9715	13.1179	-60.5125	-25.2447	-7.13351	-62.965	-28.1377	80.6249	-41.5248	-31.8084	107.552	-42.4974	-10.4333	103.953	-15.841	-39.3237	
91	0.758333	110.155	19.1261	-24.1495	99.061	47.1257	-39.6582	90.1243	67.0234	-50.2817	85.9433	86.4125	-62.0611	64.3449	14.698	-85.3384	52.5774	29.7893	-107.109	38.7526	40.6066	-122.845	43.7403	-7.25627	-77.4052	22.0754	0.127695	-99.9078	-0.267548	10.6624	-116.172	32.5574	-18.0423	-59.9417	7.34407	-18.3097	-73.3168	-12.1614	-10.4962	-85.1929	23.8735	-23.4705	-27.1773	0.182069	-20.5143	-33.743	-18.7862	-17.5905	-37.2357	70.0877	-30.5119	-31.3752	90.3319	-39.0092	-6.7761	103.615	-15.1819	-34.56	
92	0.766667	114.808	12.7319	-27.0163	110.075	37.2507	-41.8272	114.512	59.6103	-59.6825	110.099	76.0998	-73.4155	78.6593	10.9461	-91.3198	72.9147	22.1101	-117.111	63.1218	32.3358	-136.01	49.7924	-5.24286	-84.2046	35.7455	3.75586	-109.744	15.8113	12.9159	-127.93	34.374	-8.40564	-67.1822	15.4047	-6.98745	-81.1782	-9.07757	3.97158	-100.399	17.2705	-6.65571	-38.5215	3.16491	-0.803379	-44.797	-19.5857	6.88306	-53.6873	62.4943	-26.7754	-30.6219	75.826	-37.0915	-2.77899	97.5038	-19.7076	-31.7367	
93	0.775	112.916	-4.89947	-24.8799	116.94	18.9651	-43.336	122.374	36.3095	-68.4431	128.352	51.955	-81.1323	84.1655	-14.932	-91.9367	86.028	-9.30934	-117.999	77.466	-2.58545	-143.252	56.6897	-25.8112	-86.0737	40.3893	-22.9205	-115.342	29.6267	-13.719	-142.374	34.6587	-23.6527	-72.1381	19.7067	-22.2899	-89.3876	5.44142	-16.0218	-110.48	18.0686	-13.3564	-46.4105	0.691622	-7.50255	-54.7203	-17.8115	0.685787	-67.3024	54.3604	-37.6919	-30.6535	69.8632	-43.0248	0.127571	91.6737	-37.1439	-31.389	
94	0.783333	109.614	-27.4348	-17.9196	115.846	-8.42149	-41.3032	126.549	4.56658	-69.2619	130.115	16.9589	-88.2509	84.0871	-52.137	-88.3775	88.2416	-53.7045	-115.877	91.1721	-53.3626	-138.256	56.6876	-61.3823	-82.9651	46.992	-64.3249	-112.364	37.2039	-63.1927	-141.972	34.5122	-56.4205	-69.6421	20.639	-58.0339	-88.6417	6.31287	-57.4735	-111.209	21.1763	-39.0924	-49.0225	2.77495	-35.0858	-62.589	-17.7995	-29.6007	-78.0297	51.4625	-58.5818	-25.2957	58.7221	-60.0973	1.95422	90.6058	-61.0151	-19.8023	
95	0.791667	113.944	-51.7941	-13.5428	121.989	-38.0445	-38.1109	132.728	-30.4136	-68.0749	135.186	-23.278	-85.1198	94.044	-89.5919	-73.2689	97.6625	-97.8797	-100.529	102.154	-103.165	-122.412	60.277	-96.3941	-68.4686	57.1525	-108.088	-97.153	48.4573	-114.392	-125.677	42.8296	-88.7774	-59.5625	30.2033	-96.9062	-80.3125	17.0386	-102.164	-103.806	23.9054	-69.5012	-46.3611	5.0652	-67.4858	-61.4677	-9.99125	-65.3287	-76.0593	55.6944	-84.174	-15.6292	58.6599	-79.2679	12.5796	86.8257	-84.2834	-10.5871	
